<mxfile host="app.diagrams.net" agent="Mozilla/5.0 (Windows NT 10.0; Win64; x64) AppleWebKit/537.36 (KHTML, like Gecko) Chrome/138.0.0.0 Safari/537.36 Edg/138.0.0.0" version="27.2.0">
  <diagram name="ページ1" id="FiQnVPQa6T2N7QRig4OJ">
    <mxGraphModel dx="778" dy="460" grid="1" gridSize="10" guides="1" tooltips="1" connect="1" arrows="1" fold="1" page="1" pageScale="1" pageWidth="827" pageHeight="1169" math="0" shadow="0">
      <root>
        <mxCell id="0" />
        <mxCell id="1" parent="0" />
        <mxCell id="2WYETrFZMewgr2t7RXNC-1" value="VPC" style="points=[[0,0],[0.25,0],[0.5,0],[0.75,0],[1,0],[1,0.25],[1,0.5],[1,0.75],[1,1],[0.75,1],[0.5,1],[0.25,1],[0,1],[0,0.75],[0,0.5],[0,0.25]];outlineConnect=0;gradientColor=none;html=1;whiteSpace=wrap;fontSize=12;fontStyle=0;container=1;pointerEvents=0;collapsible=0;recursiveResize=0;shape=mxgraph.aws4.group;grIcon=mxgraph.aws4.group_vpc2;strokeColor=#8C4FFF;fillColor=none;verticalAlign=top;align=left;spacingLeft=30;fontColor=#AAB7B8;dashed=0;" vertex="1" parent="1">
          <mxGeometry x="280" y="100" width="820" height="770" as="geometry" />
        </mxCell>
        <mxCell id="2WYETrFZMewgr2t7RXNC-6" value="Availability Zone B" style="fillColor=none;strokeColor=#147EBA;dashed=1;verticalAlign=top;fontStyle=0;fontColor=#147EBA;whiteSpace=wrap;html=1;" vertex="1" parent="2WYETrFZMewgr2t7RXNC-1">
          <mxGeometry x="427.5" y="94" width="260" height="670" as="geometry" />
        </mxCell>
        <mxCell id="2WYETrFZMewgr2t7RXNC-2" value="Private subnet" style="points=[[0,0],[0.25,0],[0.5,0],[0.75,0],[1,0],[1,0.25],[1,0.5],[1,0.75],[1,1],[0.75,1],[0.5,1],[0.25,1],[0,1],[0,0.75],[0,0.5],[0,0.25]];outlineConnect=0;gradientColor=none;html=1;whiteSpace=wrap;fontSize=12;fontStyle=0;container=1;pointerEvents=0;collapsible=0;recursiveResize=0;shape=mxgraph.aws4.group;grIcon=mxgraph.aws4.group_security_group;grStroke=0;strokeColor=#00A4A6;fillColor=#E6F6F7;verticalAlign=top;align=left;spacingLeft=30;fontColor=#147EBA;dashed=0;" vertex="1" parent="2WYETrFZMewgr2t7RXNC-1">
          <mxGeometry x="437.5" y="335" width="220" height="375" as="geometry" />
        </mxCell>
        <mxCell id="2WYETrFZMewgr2t7RXNC-4" value="" style="sketch=0;points=[[0,0,0],[0.25,0,0],[0.5,0,0],[0.75,0,0],[1,0,0],[0,1,0],[0.25,1,0],[0.5,1,0],[0.75,1,0],[1,1,0],[0,0.25,0],[0,0.5,0],[0,0.75,0],[1,0.25,0],[1,0.5,0],[1,0.75,0]];outlineConnect=0;fontColor=#232F3E;fillColor=#ED7100;strokeColor=#ffffff;dashed=0;verticalLabelPosition=bottom;verticalAlign=top;align=center;html=1;fontSize=12;fontStyle=0;aspect=fixed;shape=mxgraph.aws4.resourceIcon;resIcon=mxgraph.aws4.ec2;" vertex="1" parent="2WYETrFZMewgr2t7RXNC-2">
          <mxGeometry x="51" y="55" width="78" height="78" as="geometry" />
        </mxCell>
        <mxCell id="2WYETrFZMewgr2t7RXNC-7" value="IGW" style="text;html=1;align=center;verticalAlign=middle;resizable=0;points=[];autosize=1;strokeColor=none;fillColor=none;" vertex="1" parent="2WYETrFZMewgr2t7RXNC-1">
          <mxGeometry x="447.5" y="6" width="50" height="30" as="geometry" />
        </mxCell>
        <mxCell id="2WYETrFZMewgr2t7RXNC-8" value="Public subnet" style="points=[[0,0],[0.25,0],[0.5,0],[0.75,0],[1,0],[1,0.25],[1,0.5],[1,0.75],[1,1],[0.75,1],[0.5,1],[0.25,1],[0,1],[0,0.75],[0,0.5],[0,0.25]];outlineConnect=0;gradientColor=none;html=1;whiteSpace=wrap;fontSize=12;fontStyle=0;container=1;pointerEvents=0;collapsible=0;recursiveResize=0;shape=mxgraph.aws4.group;grIcon=mxgraph.aws4.group_security_group;grStroke=0;strokeColor=#7AA116;fillColor=#F2F6E8;verticalAlign=top;align=left;spacingLeft=30;fontColor=#248814;dashed=0;" vertex="1" parent="2WYETrFZMewgr2t7RXNC-1">
          <mxGeometry x="157.5" y="170" width="233" height="140" as="geometry" />
        </mxCell>
        <mxCell id="2WYETrFZMewgr2t7RXNC-9" value="Availability Zone A" style="fillColor=none;strokeColor=#147EBA;dashed=1;verticalAlign=top;fontStyle=0;fontColor=#147EBA;whiteSpace=wrap;html=1;" vertex="1" parent="2WYETrFZMewgr2t7RXNC-8">
          <mxGeometry x="-47.5" y="-76" width="285" height="670" as="geometry" />
        </mxCell>
        <mxCell id="2WYETrFZMewgr2t7RXNC-10" value="NATGateway" style="text;html=1;align=center;verticalAlign=middle;resizable=0;points=[];autosize=1;strokeColor=none;fillColor=none;" vertex="1" parent="2WYETrFZMewgr2t7RXNC-8">
          <mxGeometry x="8.240000000000009" y="105.85000000000002" width="90" height="30" as="geometry" />
        </mxCell>
        <mxCell id="2WYETrFZMewgr2t7RXNC-11" value="" style="sketch=0;outlineConnect=0;fontColor=#232F3E;gradientColor=none;fillColor=#8C4FFF;strokeColor=none;dashed=0;verticalLabelPosition=bottom;verticalAlign=top;align=center;html=1;fontSize=12;fontStyle=0;aspect=fixed;pointerEvents=1;shape=mxgraph.aws4.nat_gateway;" vertex="1" parent="2WYETrFZMewgr2t7RXNC-8">
          <mxGeometry x="14.240000000000009" y="30" width="78" height="78" as="geometry" />
        </mxCell>
        <mxCell id="2WYETrFZMewgr2t7RXNC-12" value="TCP(80)" style="text;html=1;align=center;verticalAlign=middle;resizable=0;points=[];autosize=1;strokeColor=none;fillColor=none;" vertex="1" parent="2WYETrFZMewgr2t7RXNC-8">
          <mxGeometry x="122.5" y="90" width="70" height="30" as="geometry" />
        </mxCell>
        <mxCell id="2WYETrFZMewgr2t7RXNC-13" value="Private subnet" style="points=[[0,0],[0.25,0],[0.5,0],[0.75,0],[1,0],[1,0.25],[1,0.5],[1,0.75],[1,1],[0.75,1],[0.5,1],[0.25,1],[0,1],[0,0.75],[0,0.5],[0,0.25]];outlineConnect=0;gradientColor=none;html=1;whiteSpace=wrap;fontSize=12;fontStyle=0;container=1;pointerEvents=0;collapsible=0;recursiveResize=0;shape=mxgraph.aws4.group;grIcon=mxgraph.aws4.group_security_group;grStroke=0;strokeColor=#00A4A6;fillColor=#E6F6F7;verticalAlign=top;align=left;spacingLeft=30;fontColor=#147EBA;dashed=0;" vertex="1" parent="2WYETrFZMewgr2t7RXNC-1">
          <mxGeometry x="160" y="335" width="229" height="375" as="geometry" />
        </mxCell>
        <mxCell id="2WYETrFZMewgr2t7RXNC-18" value="Security group" style="fillColor=none;strokeColor=#DD3522;verticalAlign=top;fontStyle=0;fontColor=#DD3522;whiteSpace=wrap;html=1;align=left;" vertex="1" parent="2WYETrFZMewgr2t7RXNC-13">
          <mxGeometry x="-117.5" y="215" width="737.5" height="110" as="geometry" />
        </mxCell>
        <mxCell id="2WYETrFZMewgr2t7RXNC-14" value="" style="sketch=0;points=[[0,0,0],[0.25,0,0],[0.5,0,0],[0.75,0,0],[1,0,0],[0,1,0],[0.25,1,0],[0.5,1,0],[0.75,1,0],[1,1,0],[0,0.25,0],[0,0.5,0],[0,0.75,0],[1,0.25,0],[1,0.5,0],[1,0.75,0]];outlineConnect=0;fontColor=#232F3E;fillColor=#ED7100;strokeColor=#ffffff;dashed=0;verticalLabelPosition=bottom;verticalAlign=top;align=center;html=1;fontSize=12;fontStyle=0;aspect=fixed;shape=mxgraph.aws4.resourceIcon;resIcon=mxgraph.aws4.ec2;" vertex="1" parent="2WYETrFZMewgr2t7RXNC-13">
          <mxGeometry x="71" y="55" width="78" height="78" as="geometry" />
        </mxCell>
        <mxCell id="2WYETrFZMewgr2t7RXNC-15" value="" style="sketch=0;points=[[0,0,0],[0.25,0,0],[0.5,0,0],[0.75,0,0],[1,0,0],[0,1,0],[0.25,1,0],[0.5,1,0],[0.75,1,0],[1,1,0],[0,0.25,0],[0,0.5,0],[0,0.75,0],[1,0.25,0],[1,0.5,0],[1,0.75,0]];outlineConnect=0;fontColor=#232F3E;fillColor=#C925D1;strokeColor=#ffffff;dashed=0;verticalLabelPosition=bottom;verticalAlign=top;align=center;html=1;fontSize=12;fontStyle=0;aspect=fixed;shape=mxgraph.aws4.resourceIcon;resIcon=mxgraph.aws4.rds;" vertex="1" parent="2WYETrFZMewgr2t7RXNC-13">
          <mxGeometry x="71" y="231" width="78" height="78" as="geometry" />
        </mxCell>
        <mxCell id="2WYETrFZMewgr2t7RXNC-16" value="RDS&lt;div&gt;(DBサーバー)&lt;/div&gt;&lt;div&gt;Primary&lt;/div&gt;" style="text;html=1;align=center;verticalAlign=middle;resizable=0;points=[];autosize=1;strokeColor=none;fillColor=none;" vertex="1" parent="2WYETrFZMewgr2t7RXNC-13">
          <mxGeometry x="60" y="303" width="100" height="60" as="geometry" />
        </mxCell>
        <mxCell id="2WYETrFZMewgr2t7RXNC-17" value="MySQL接続(3306)" style="text;html=1;align=center;verticalAlign=middle;resizable=0;points=[];autosize=1;strokeColor=none;fillColor=none;" vertex="1" parent="2WYETrFZMewgr2t7RXNC-13">
          <mxGeometry x="105" y="185" width="120" height="30" as="geometry" />
        </mxCell>
        <mxCell id="2WYETrFZMewgr2t7RXNC-19" value="Public subnet" style="points=[[0,0],[0.25,0],[0.5,0],[0.75,0],[1,0],[1,0.25],[1,0.5],[1,0.75],[1,1],[0.75,1],[0.5,1],[0.25,1],[0,1],[0,0.75],[0,0.5],[0,0.25]];outlineConnect=0;gradientColor=none;html=1;whiteSpace=wrap;fontSize=12;fontStyle=0;container=1;pointerEvents=0;collapsible=0;recursiveResize=0;shape=mxgraph.aws4.group;grIcon=mxgraph.aws4.group_security_group;grStroke=0;strokeColor=#7AA116;fillColor=#F2F6E8;verticalAlign=top;align=left;spacingLeft=30;fontColor=#248814;dashed=0;" vertex="1" parent="2WYETrFZMewgr2t7RXNC-1">
          <mxGeometry x="437.5" y="170" width="220" height="140" as="geometry" />
        </mxCell>
        <mxCell id="2WYETrFZMewgr2t7RXNC-20" value="" style="sketch=0;outlineConnect=0;fontColor=#232F3E;gradientColor=none;fillColor=#8C4FFF;strokeColor=none;dashed=0;verticalLabelPosition=bottom;verticalAlign=top;align=center;html=1;fontSize=12;fontStyle=0;aspect=fixed;pointerEvents=1;shape=mxgraph.aws4.application_load_balancer;" vertex="1" parent="2WYETrFZMewgr2t7RXNC-1">
          <mxGeometry x="351" y="195" width="105" height="105" as="geometry" />
        </mxCell>
        <mxCell id="2WYETrFZMewgr2t7RXNC-21" value="" style="edgeStyle=orthogonalEdgeStyle;html=1;endArrow=none;elbow=vertical;startArrow=block;startFill=1;strokeColor=#545B64;rounded=0;entryX=0.5;entryY=1;entryDx=0;entryDy=0;entryPerimeter=0;exitX=0.5;exitY=0;exitDx=0;exitDy=0;exitPerimeter=0;" edge="1" parent="2WYETrFZMewgr2t7RXNC-1" source="2WYETrFZMewgr2t7RXNC-15" target="2WYETrFZMewgr2t7RXNC-4">
          <mxGeometry width="100" relative="1" as="geometry">
            <mxPoint x="247.5" y="500" as="sourcePoint" />
            <mxPoint x="687.5" y="420" as="targetPoint" />
          </mxGeometry>
        </mxCell>
        <mxCell id="2WYETrFZMewgr2t7RXNC-22" value="ALB" style="text;html=1;align=center;verticalAlign=middle;resizable=0;points=[];autosize=1;strokeColor=none;fillColor=none;" vertex="1" parent="2WYETrFZMewgr2t7RXNC-1">
          <mxGeometry x="379" y="300" width="50" height="30" as="geometry" />
        </mxCell>
        <mxCell id="2WYETrFZMewgr2t7RXNC-23" value="EC2&lt;div&gt;（Webサーバー)&lt;/div&gt;" style="text;html=1;align=center;verticalAlign=middle;resizable=0;points=[];autosize=1;strokeColor=none;fillColor=none;" vertex="1" parent="2WYETrFZMewgr2t7RXNC-1">
          <mxGeometry x="570" y="409" width="110" height="40" as="geometry" />
        </mxCell>
        <mxCell id="2WYETrFZMewgr2t7RXNC-24" value="" style="edgeStyle=orthogonalEdgeStyle;html=1;endArrow=none;elbow=vertical;startArrow=block;startFill=1;strokeColor=#545B64;rounded=0;exitX=0.5;exitY=0;exitDx=0;exitDy=0;exitPerimeter=0;" edge="1" parent="2WYETrFZMewgr2t7RXNC-1" source="2WYETrFZMewgr2t7RXNC-15">
          <mxGeometry width="100" relative="1" as="geometry">
            <mxPoint x="587.5" y="420" as="sourcePoint" />
            <mxPoint x="247.5" y="470" as="targetPoint" />
          </mxGeometry>
        </mxCell>
        <mxCell id="2WYETrFZMewgr2t7RXNC-25" value="" style="edgeStyle=orthogonalEdgeStyle;html=1;endArrow=block;elbow=vertical;startArrow=none;endFill=1;strokeColor=#545B64;rounded=0;exitX=0.189;exitY=0.044;exitDx=0;exitDy=0;exitPerimeter=0;" edge="1" parent="2WYETrFZMewgr2t7RXNC-1" source="2WYETrFZMewgr2t7RXNC-33" target="2WYETrFZMewgr2t7RXNC-11">
          <mxGeometry width="100" relative="1" as="geometry">
            <mxPoint x="220" y="330" as="sourcePoint" />
            <mxPoint x="390" y="360" as="targetPoint" />
          </mxGeometry>
        </mxCell>
        <mxCell id="2WYETrFZMewgr2t7RXNC-26" value="" style="edgeStyle=orthogonalEdgeStyle;html=1;endArrow=block;elbow=vertical;startArrow=block;startFill=1;endFill=1;strokeColor=#545B64;rounded=0;entryX=-0.01;entryY=0.524;entryDx=0;entryDy=0;entryPerimeter=0;exitX=0.5;exitY=0;exitDx=0;exitDy=0;exitPerimeter=0;" edge="1" parent="2WYETrFZMewgr2t7RXNC-1" source="2WYETrFZMewgr2t7RXNC-14" target="2WYETrFZMewgr2t7RXNC-20">
          <mxGeometry width="100" relative="1" as="geometry">
            <mxPoint x="290" y="330" as="sourcePoint" />
            <mxPoint x="390" y="330" as="targetPoint" />
          </mxGeometry>
        </mxCell>
        <mxCell id="2WYETrFZMewgr2t7RXNC-27" value="" style="edgeStyle=orthogonalEdgeStyle;html=1;endArrow=block;elbow=vertical;startArrow=block;startFill=1;endFill=1;strokeColor=#545B64;rounded=0;entryX=0.5;entryY=0;entryDx=0;entryDy=0;entryPerimeter=0;" edge="1" parent="2WYETrFZMewgr2t7RXNC-1" source="2WYETrFZMewgr2t7RXNC-20" target="2WYETrFZMewgr2t7RXNC-4">
          <mxGeometry width="100" relative="1" as="geometry">
            <mxPoint x="290" y="330" as="sourcePoint" />
            <mxPoint x="390" y="330" as="targetPoint" />
          </mxGeometry>
        </mxCell>
        <mxCell id="2WYETrFZMewgr2t7RXNC-28" value="TCP(80)" style="text;html=1;align=center;verticalAlign=middle;resizable=0;points=[];autosize=1;strokeColor=none;fillColor=none;" vertex="1" parent="2WYETrFZMewgr2t7RXNC-1">
          <mxGeometry x="437.5" y="70" width="70" height="30" as="geometry" />
        </mxCell>
        <mxCell id="2WYETrFZMewgr2t7RXNC-29" value="" style="sketch=0;outlineConnect=0;fontColor=#232F3E;gradientColor=none;fillColor=#8C4FFF;strokeColor=none;dashed=0;verticalLabelPosition=bottom;verticalAlign=top;align=center;html=1;fontSize=12;fontStyle=0;aspect=fixed;pointerEvents=1;shape=mxgraph.aws4.internet_gateway;" vertex="1" parent="2WYETrFZMewgr2t7RXNC-1">
          <mxGeometry x="366" y="-30" width="78" height="78" as="geometry" />
        </mxCell>
        <mxCell id="2WYETrFZMewgr2t7RXNC-30" value="" style="edgeStyle=orthogonalEdgeStyle;html=1;endArrow=block;elbow=vertical;startArrow=none;endFill=1;strokeColor=#545B64;rounded=0;exitX=0.351;exitY=0.158;exitDx=0;exitDy=0;exitPerimeter=0;" edge="1" parent="2WYETrFZMewgr2t7RXNC-1" source="2WYETrFZMewgr2t7RXNC-9" target="2WYETrFZMewgr2t7RXNC-29">
          <mxGeometry width="100" relative="1" as="geometry">
            <mxPoint x="290" y="270" as="sourcePoint" />
            <mxPoint x="210" y="80" as="targetPoint" />
            <Array as="points" />
          </mxGeometry>
        </mxCell>
        <mxCell id="2WYETrFZMewgr2t7RXNC-31" value="" style="edgeStyle=orthogonalEdgeStyle;html=1;endArrow=block;elbow=vertical;startArrow=block;startFill=1;endFill=1;strokeColor=#545B64;rounded=0;entryX=0.663;entryY=0.01;entryDx=0;entryDy=0;entryPerimeter=0;" edge="1" parent="2WYETrFZMewgr2t7RXNC-1" source="2WYETrFZMewgr2t7RXNC-29" target="2WYETrFZMewgr2t7RXNC-20">
          <mxGeometry width="100" relative="1" as="geometry">
            <mxPoint x="400" y="70" as="sourcePoint" />
            <mxPoint x="460" y="170" as="targetPoint" />
          </mxGeometry>
        </mxCell>
        <mxCell id="2WYETrFZMewgr2t7RXNC-32" value="EC2&lt;div&gt;(Webサーバー)&lt;/div&gt;" style="text;html=1;align=center;verticalAlign=middle;resizable=0;points=[];autosize=1;strokeColor=none;fillColor=none;" vertex="1" parent="2WYETrFZMewgr2t7RXNC-1">
          <mxGeometry x="310" y="409" width="100" height="40" as="geometry" />
        </mxCell>
        <mxCell id="2WYETrFZMewgr2t7RXNC-33" value="Security group" style="fillColor=none;strokeColor=#DD3522;verticalAlign=top;fontStyle=0;fontColor=#DD3522;whiteSpace=wrap;html=1;align=left;" vertex="1" parent="2WYETrFZMewgr2t7RXNC-1">
          <mxGeometry x="40" y="370" width="740" height="110" as="geometry" />
        </mxCell>
        <mxCell id="2WYETrFZMewgr2t7RXNC-34" value="Security group" style="fillColor=none;strokeColor=#DD3522;verticalAlign=top;fontStyle=0;fontColor=#DD3522;whiteSpace=wrap;html=1;align=left;" vertex="1" parent="2WYETrFZMewgr2t7RXNC-1">
          <mxGeometry x="336" y="192.5" width="144" height="110" as="geometry" />
        </mxCell>
        <mxCell id="2WYETrFZMewgr2t7RXNC-35" value="" style="edgeStyle=orthogonalEdgeStyle;html=1;endArrow=none;elbow=vertical;startArrow=block;startFill=1;strokeColor=#545B64;rounded=0;entryX=0.866;entryY=0.989;entryDx=0;entryDy=0;entryPerimeter=0;shape=filledEdge;dashed=1;" edge="1" parent="2WYETrFZMewgr2t7RXNC-1" source="2WYETrFZMewgr2t7RXNC-33" target="2WYETrFZMewgr2t7RXNC-34">
          <mxGeometry width="100" relative="1" as="geometry">
            <mxPoint x="350" y="360" as="sourcePoint" />
            <mxPoint x="450" y="360" as="targetPoint" />
            <Array as="points">
              <mxPoint x="410" y="330" />
              <mxPoint x="461" y="330" />
            </Array>
          </mxGeometry>
        </mxCell>
        <mxCell id="2WYETrFZMewgr2t7RXNC-36" value="" style="edgeStyle=orthogonalEdgeStyle;html=1;endArrow=none;elbow=vertical;startArrow=block;startFill=1;strokeColor=#545B64;rounded=0;exitX=0.75;exitY=0;exitDx=0;exitDy=0;entryX=0.8;entryY=0.976;entryDx=0;entryDy=0;entryPerimeter=0;dashed=1;" edge="1" parent="2WYETrFZMewgr2t7RXNC-1" source="2WYETrFZMewgr2t7RXNC-18" target="2WYETrFZMewgr2t7RXNC-33">
          <mxGeometry width="100" relative="1" as="geometry">
            <mxPoint x="350" y="460" as="sourcePoint" />
            <mxPoint x="450" y="460" as="targetPoint" />
          </mxGeometry>
        </mxCell>
        <mxCell id="2WYETrFZMewgr2t7RXNC-3" value="" style="sketch=0;outlineConnect=0;fontColor=#232F3E;gradientColor=none;fillColor=#C925D1;strokeColor=none;dashed=0;verticalLabelPosition=bottom;verticalAlign=top;align=center;html=1;fontSize=12;fontStyle=0;aspect=fixed;pointerEvents=1;shape=mxgraph.aws4.rds_multi_az;" vertex="1" parent="2WYETrFZMewgr2t7RXNC-1">
          <mxGeometry x="497.5" y="580" width="78" height="58" as="geometry" />
        </mxCell>
        <mxCell id="2WYETrFZMewgr2t7RXNC-5" value="RDS&lt;div&gt;Secondry&lt;/div&gt;" style="text;html=1;align=center;verticalAlign=middle;resizable=0;points=[];autosize=1;strokeColor=none;fillColor=none;" vertex="1" parent="2WYETrFZMewgr2t7RXNC-1">
          <mxGeometry x="505.5" y="638" width="70" height="40" as="geometry" />
        </mxCell>
        <mxCell id="2WYETrFZMewgr2t7RXNC-37" value="" style="sketch=0;outlineConnect=0;fontColor=#232F3E;gradientColor=none;fillColor=#E7157B;strokeColor=none;dashed=0;verticalLabelPosition=bottom;verticalAlign=top;align=center;html=1;fontSize=12;fontStyle=0;aspect=fixed;pointerEvents=1;shape=mxgraph.aws4.systems_manager_session_manager;" vertex="1" parent="1">
          <mxGeometry x="180" y="490" width="78" height="78" as="geometry" />
        </mxCell>
        <mxCell id="2WYETrFZMewgr2t7RXNC-38" value="" style="sketch=0;outlineConnect=0;fontColor=#232F3E;gradientColor=none;fillColor=#232F3D;strokeColor=none;dashed=0;verticalLabelPosition=bottom;verticalAlign=top;align=center;html=1;fontSize=12;fontStyle=0;aspect=fixed;pointerEvents=1;shape=mxgraph.aws4.user;" vertex="1" parent="1">
          <mxGeometry x="180" y="360" width="78" height="78" as="geometry" />
        </mxCell>
        <mxCell id="2WYETrFZMewgr2t7RXNC-39" value="" style="edgeStyle=orthogonalEdgeStyle;html=1;endArrow=none;elbow=vertical;startArrow=block;startFill=1;strokeColor=#545B64;rounded=0;" edge="1" parent="1" source="2WYETrFZMewgr2t7RXNC-37" target="2WYETrFZMewgr2t7RXNC-38">
          <mxGeometry width="100" relative="1" as="geometry">
            <mxPoint x="460" y="580" as="sourcePoint" />
            <mxPoint x="560" y="580" as="targetPoint" />
          </mxGeometry>
        </mxCell>
        <mxCell id="2WYETrFZMewgr2t7RXNC-40" value="" style="edgeStyle=orthogonalEdgeStyle;html=1;endArrow=none;elbow=vertical;startArrow=block;startFill=1;strokeColor=#545B64;rounded=0;" edge="1" parent="1" source="2WYETrFZMewgr2t7RXNC-14" target="2WYETrFZMewgr2t7RXNC-37">
          <mxGeometry width="100" relative="1" as="geometry">
            <mxPoint x="460" y="520" as="sourcePoint" />
            <mxPoint x="560" y="520" as="targetPoint" />
          </mxGeometry>
        </mxCell>
        <mxCell id="2WYETrFZMewgr2t7RXNC-41" value="SessionManager" style="text;html=1;align=center;verticalAlign=middle;resizable=0;points=[];autosize=1;strokeColor=none;fillColor=none;" vertex="1" parent="1">
          <mxGeometry x="160" y="570" width="110" height="30" as="geometry" />
        </mxCell>
        <mxCell id="2WYETrFZMewgr2t7RXNC-42" value="" style="sketch=0;outlineConnect=0;fontColor=#232F3E;gradientColor=none;fillColor=#232F3D;strokeColor=none;dashed=0;verticalLabelPosition=bottom;verticalAlign=top;align=center;html=1;fontSize=12;fontStyle=0;aspect=fixed;pointerEvents=1;shape=mxgraph.aws4.globe;" vertex="1" parent="1">
          <mxGeometry x="800" y="10" width="78" height="78" as="geometry" />
        </mxCell>
        <mxCell id="2WYETrFZMewgr2t7RXNC-44" value="" style="edgeStyle=orthogonalEdgeStyle;html=1;endArrow=block;elbow=vertical;startArrow=block;startFill=1;endFill=1;strokeColor=#545B64;rounded=0;" edge="1" parent="1" source="2WYETrFZMewgr2t7RXNC-42">
          <mxGeometry width="100" relative="1" as="geometry">
            <mxPoint x="620" y="80" as="sourcePoint" />
            <mxPoint x="720" y="80" as="targetPoint" />
          </mxGeometry>
        </mxCell>
      </root>
    </mxGraphModel>
  </diagram>
</mxfile>
